<mxfile host="app.diagrams.net" modified="2023-11-08T15:07:43.268Z" agent="Mozilla/5.0 (X11; Linux x86_64) AppleWebKit/537.36 (KHTML, like Gecko) Chrome/119.0.0.0 Safari/537.36" etag="0_7KFXchleXA_tTkENA6" version="22.0.8" type="github">
  <diagram name="DC - Ordenes MultiBodega" id="dP7JWLLXYjm7gVHI7CY_">
    <mxGraphModel dx="2462" dy="965" grid="1" gridSize="10" guides="1" tooltips="1" connect="1" arrows="1" fold="1" page="1" pageScale="1" pageWidth="827" pageHeight="1169" math="0" shadow="0">
      <root>
        <mxCell id="0" />
        <mxCell id="1" parent="0" />
        <mxCell id="L0VeZE1op2uClBTfo5yl-1" value="OrderController" style="swimlane;fontStyle=1;align=center;verticalAlign=top;childLayout=stackLayout;horizontal=1;startSize=26;horizontalStack=0;resizeParent=1;resizeParentMax=0;resizeLast=0;collapsible=1;marginBottom=0;whiteSpace=wrap;html=1;" parent="1" vertex="1">
          <mxGeometry x="67" y="630" width="170" height="112" as="geometry" />
        </mxCell>
        <mxCell id="L0VeZE1op2uClBTfo5yl-3" value="" style="line;strokeWidth=1;fillColor=none;align=left;verticalAlign=middle;spacingTop=-1;spacingLeft=3;spacingRight=3;rotatable=0;labelPosition=right;points=[];portConstraint=eastwest;strokeColor=inherit;" parent="L0VeZE1op2uClBTfo5yl-1" vertex="1">
          <mxGeometry y="26" width="170" height="8" as="geometry" />
        </mxCell>
        <mxCell id="L0VeZE1op2uClBTfo5yl-4" value="+ makeOrder(type): type" style="text;strokeColor=none;fillColor=none;align=left;verticalAlign=top;spacingLeft=4;spacingRight=4;overflow=hidden;rotatable=0;points=[[0,0.5],[1,0.5]];portConstraint=eastwest;whiteSpace=wrap;html=1;" parent="L0VeZE1op2uClBTfo5yl-1" vertex="1">
          <mxGeometry y="34" width="170" height="26" as="geometry" />
        </mxCell>
        <mxCell id="ISHGSuIzEJpDbCj77XcH-2" value="+ makeOrder(type): type" style="text;strokeColor=none;fillColor=none;align=left;verticalAlign=top;spacingLeft=4;spacingRight=4;overflow=hidden;rotatable=0;points=[[0,0.5],[1,0.5]];portConstraint=eastwest;whiteSpace=wrap;html=1;" vertex="1" parent="L0VeZE1op2uClBTfo5yl-1">
          <mxGeometry y="60" width="170" height="26" as="geometry" />
        </mxCell>
        <mxCell id="ISHGSuIzEJpDbCj77XcH-3" value="+ makeOrder(type): type" style="text;strokeColor=none;fillColor=none;align=left;verticalAlign=top;spacingLeft=4;spacingRight=4;overflow=hidden;rotatable=0;points=[[0,0.5],[1,0.5]];portConstraint=eastwest;whiteSpace=wrap;html=1;" vertex="1" parent="L0VeZE1op2uClBTfo5yl-1">
          <mxGeometry y="86" width="170" height="26" as="geometry" />
        </mxCell>
        <mxCell id="L0VeZE1op2uClBTfo5yl-5" value="WarehouseService" style="swimlane;fontStyle=1;align=center;verticalAlign=top;childLayout=stackLayout;horizontal=1;startSize=26;horizontalStack=0;resizeParent=1;resizeParentMax=0;resizeLast=0;collapsible=1;marginBottom=0;whiteSpace=wrap;html=1;" parent="1" vertex="1">
          <mxGeometry x="42" y="910" width="240" height="134" as="geometry" />
        </mxCell>
        <mxCell id="L0VeZE1op2uClBTfo5yl-6" value="+ field: type" style="text;strokeColor=none;fillColor=none;align=left;verticalAlign=top;spacingLeft=4;spacingRight=4;overflow=hidden;rotatable=0;points=[[0,0.5],[1,0.5]];portConstraint=eastwest;whiteSpace=wrap;html=1;" parent="L0VeZE1op2uClBTfo5yl-5" vertex="1">
          <mxGeometry y="26" width="240" height="26" as="geometry" />
        </mxCell>
        <mxCell id="L0VeZE1op2uClBTfo5yl-7" value="" style="line;strokeWidth=1;fillColor=none;align=left;verticalAlign=middle;spacingTop=-1;spacingLeft=3;spacingRight=3;rotatable=0;labelPosition=right;points=[];portConstraint=eastwest;strokeColor=inherit;" parent="L0VeZE1op2uClBTfo5yl-5" vertex="1">
          <mxGeometry y="52" width="240" height="8" as="geometry" />
        </mxCell>
        <mxCell id="L0VeZE1op2uClBTfo5yl-8" value="+&amp;nbsp;getNearestOriginWarehouse&lt;span style=&quot;background-color: initial;&quot;&gt;(type): type&lt;/span&gt;" style="text;strokeColor=none;fillColor=none;align=left;verticalAlign=top;spacingLeft=4;spacingRight=4;overflow=hidden;rotatable=0;points=[[0,0.5],[1,0.5]];portConstraint=eastwest;whiteSpace=wrap;html=1;" parent="L0VeZE1op2uClBTfo5yl-5" vertex="1">
          <mxGeometry y="60" width="240" height="74" as="geometry" />
        </mxCell>
        <mxCell id="L0VeZE1op2uClBTfo5yl-10" value="" style="endArrow=open;endFill=1;endSize=12;html=1;rounded=0;entryX=0.446;entryY=0.022;entryDx=0;entryDy=0;entryPerimeter=0;exitX=0.513;exitY=1.147;exitDx=0;exitDy=0;exitPerimeter=0;" parent="1" source="ISHGSuIzEJpDbCj77XcH-3" target="L0VeZE1op2uClBTfo5yl-5" edge="1">
          <mxGeometry width="160" relative="1" as="geometry">
            <mxPoint x="167" y="750" as="sourcePoint" />
            <mxPoint x="297" y="680" as="targetPoint" />
          </mxGeometry>
        </mxCell>
        <mxCell id="L0VeZE1op2uClBTfo5yl-11" value="DistanceMatrixService" style="swimlane;fontStyle=1;align=center;verticalAlign=top;childLayout=stackLayout;horizontal=1;startSize=26;horizontalStack=0;resizeParent=1;resizeParentMax=0;resizeLast=0;collapsible=1;marginBottom=0;whiteSpace=wrap;html=1;" parent="1" vertex="1">
          <mxGeometry x="477" y="900" width="307.69" height="110" as="geometry" />
        </mxCell>
        <mxCell id="L0VeZE1op2uClBTfo5yl-12" value="+ field: type" style="text;strokeColor=none;fillColor=none;align=left;verticalAlign=top;spacingLeft=4;spacingRight=4;overflow=hidden;rotatable=0;points=[[0,0.5],[1,0.5]];portConstraint=eastwest;whiteSpace=wrap;html=1;" parent="L0VeZE1op2uClBTfo5yl-11" vertex="1">
          <mxGeometry y="26" width="307.69" height="26" as="geometry" />
        </mxCell>
        <mxCell id="L0VeZE1op2uClBTfo5yl-13" value="" style="line;strokeWidth=1;fillColor=none;align=left;verticalAlign=middle;spacingTop=-1;spacingLeft=3;spacingRight=3;rotatable=0;labelPosition=right;points=[];portConstraint=eastwest;strokeColor=inherit;" parent="L0VeZE1op2uClBTfo5yl-11" vertex="1">
          <mxGeometry y="52" width="307.69" height="8" as="geometry" />
        </mxCell>
        <mxCell id="L0VeZE1op2uClBTfo5yl-14" value="+ getMinDistance(origins, destinations): string" style="text;strokeColor=none;fillColor=none;align=left;verticalAlign=top;spacingLeft=4;spacingRight=4;overflow=hidden;rotatable=0;points=[[0,0.5],[1,0.5]];portConstraint=eastwest;whiteSpace=wrap;html=1;" parent="L0VeZE1op2uClBTfo5yl-11" vertex="1">
          <mxGeometry y="60" width="307.69" height="50" as="geometry" />
        </mxCell>
        <mxCell id="L0VeZE1op2uClBTfo5yl-15" value="" style="endArrow=open;endFill=1;endSize=12;html=1;rounded=0;entryX=-0.003;entryY=0.14;entryDx=0;entryDy=0;entryPerimeter=0;exitX=1;exitY=0.875;exitDx=0;exitDy=0;exitPerimeter=0;" parent="1" source="L0VeZE1op2uClBTfo5yl-7" target="L0VeZE1op2uClBTfo5yl-14" edge="1">
          <mxGeometry width="160" relative="1" as="geometry">
            <mxPoint x="297" y="960" as="sourcePoint" />
            <mxPoint x="437" y="960" as="targetPoint" />
          </mxGeometry>
        </mxCell>
        <object placeholders="1" c4Name="Backend" c4Type="SystemScopeBoundary" c4Application="Dropi core" label="&lt;font style=&quot;font-size: 16px&quot;&gt;&lt;b&gt;&lt;div style=&quot;text-align: left&quot;&gt;%c4Name%&lt;/div&gt;&lt;/b&gt;&lt;/font&gt;&lt;div style=&quot;text-align: left&quot;&gt;[%c4Application%]&lt;/div&gt;" id="ISHGSuIzEJpDbCj77XcH-4">
          <mxCell style="rounded=1;fontSize=11;whiteSpace=wrap;html=1;dashed=1;arcSize=20;fillColor=none;strokeColor=#666666;fontColor=#333333;labelBackgroundColor=none;align=left;verticalAlign=bottom;labelBorderColor=none;spacingTop=0;spacing=10;dashPattern=8 4;metaEdit=1;rotatable=0;perimeter=rectanglePerimeter;noLabel=0;labelPadding=0;allowArrows=0;connectable=0;expand=0;recursiveResize=0;editable=1;pointerEvents=0;absoluteArcSize=1;points=[[0.25,0,0],[0.5,0,0],[0.75,0,0],[1,0.25,0],[1,0.5,0],[1,0.75,0],[0.75,1,0],[0.5,1,0],[0.25,1,0],[0,0.75,0],[0,0.5,0],[0,0.25,0]];" vertex="1" parent="1">
            <mxGeometry x="20" y="600" width="780" height="550" as="geometry" />
          </mxCell>
        </object>
        <object placeholders="1" c4Name="Frontend" c4Type="SystemScopeBoundary" c4Application="Dropi core" label="&lt;font style=&quot;font-size: 16px&quot;&gt;&lt;b&gt;&lt;div style=&quot;text-align: left&quot;&gt;%c4Name%&lt;/div&gt;&lt;/b&gt;&lt;/font&gt;&lt;div style=&quot;text-align: left&quot;&gt;[%c4Application%]&lt;/div&gt;" id="ISHGSuIzEJpDbCj77XcH-18">
          <mxCell style="rounded=1;fontSize=11;whiteSpace=wrap;html=1;dashed=1;arcSize=20;fillColor=none;strokeColor=#666666;fontColor=#333333;labelBackgroundColor=none;align=left;verticalAlign=bottom;labelBorderColor=none;spacingTop=0;spacing=10;dashPattern=8 4;metaEdit=1;rotatable=0;perimeter=rectanglePerimeter;noLabel=0;labelPadding=0;allowArrows=0;connectable=0;expand=0;recursiveResize=0;editable=1;pointerEvents=0;absoluteArcSize=1;points=[[0.25,0,0],[0.5,0,0],[0.75,0,0],[1,0.25,0],[1,0.5,0],[1,0.75,0],[0.75,1,0],[0.5,1,0],[0.25,1,0],[0,0.75,0],[0,0.5,0],[0,0.25,0]];" vertex="1" parent="1">
            <mxGeometry x="25" y="40" width="778" height="500" as="geometry" />
          </mxCell>
        </object>
      </root>
    </mxGraphModel>
  </diagram>
</mxfile>
